<?xml version="1.0" encoding="utf-8"?>
<!-- Generator: Adobe Illustrator 24.0.1, SVG Export Plug-In . SVG Version: 6.00 Build 0)  -->
<svg version="1.1" id="Layer_1" xmlns="http://www.w3.org/2000/svg" xmlns:xlink="http://www.w3.org/1999/xlink" x="0px" y="0px"
	 viewBox="0 0 41.9 27.9" style="enable-background:new 0 0 41.9 27.9;" xml:space="preserve">
<style type="text/css">
	.st0{opacity:0.8;fill:#FFFFFF;enable-background:new    ;}
	.st1{fill:#40939B;}
	.st2{fill:url(#SVGID_1_);}
	.st3{fill:url(#SVGID_2_);}
	.st4{fill:url(#SVGID_3_);}
	.st5{fill:url(#SVGID_4_);}
	.st6{fill:url(#SVGID_5_);}
	.st7{fill:url(#SVGID_6_);}
	.st8{fill:url(#SVGID_7_);}
	.st9{fill:url(#SVGID_8_);}
	.st10{fill:url(#SVGID_9_);}
	.st11{fill:#05707A;}
	.st12{fill:#00ACCC;}
	.st13{fill:#FFFFFF;}
</style>
<path class="st0" d="M40.9,14.1c0,2.7-2.2,5-5,5H23.5l-0.4,1l-2.2,5.5L18.8,20l-0.4-1H5.9c-2.7,0-5-2.2-5-5V5.9c0-2.7,2.2-5,5-5H36
	c2.7,0,5,2.2,5,5L40.9,14.1L40.9,14.1z"/>
<path class="st1" d="M36,0H5.9C2.7,0,0,2.6,0,5.9v8.2C0,17.4,2.7,20,5.9,20h11.8l3.2,7.9l3.2-7.9H36c3.3,0,5.9-2.7,5.9-5.9V5.9
	C41.9,2.6,39.2,0,36,0z M40.9,14.1c0,2.7-2.2,5-5,5H23.5l-0.4,1l-2.2,5.5L18.8,20l-0.4-1H5.9c-2.7,0-5-2.2-5-5V5.9c0-2.7,2.2-5,5-5
	H36c2.7,0,5,2.2,5,5L40.9,14.1L40.9,14.1z"/>
<g>
	<g>
		<linearGradient id="SVGID_1_" gradientUnits="userSpaceOnUse" x1="3.9603" y1="11.4502" x2="7.6215" y2="11.4502">
			<stop  offset="0" style="stop-color:#05BFE2"/>
			<stop  offset="4.640000e-02" style="stop-color:#03B9DB"/>
			<stop  offset="0.1598" style="stop-color:#01AFD0"/>
			<stop  offset="0.2809" style="stop-color:#00ACCC"/>
			<stop  offset="1" style="stop-color:#029BB8"/>
		</linearGradient>
		<path class="st2" d="M7,12.8c-0.8,0.7-1.9,0.6-2.6-0.2s-0.6-1.9,0.2-2.6c0.8-0.7,1.9-0.6,2.6,0.2S7.8,12.2,7,12.8z"/>
		
			<linearGradient id="SVGID_2_" gradientUnits="userSpaceOnUse" x1="162.5992" y1="-156.4608" x2="167.4802" y2="-156.4608" gradientTransform="matrix(0.7079 0 0 -0.7079 -80.6204 -99.1421)">
			<stop  offset="0" style="stop-color:#05BFE2"/>
			<stop  offset="4.640000e-02" style="stop-color:#03B9DB"/>
			<stop  offset="0.1598" style="stop-color:#01AFD0"/>
			<stop  offset="0.2809" style="stop-color:#00ACCC"/>
			<stop  offset="1" style="stop-color:#029BB8"/>
		</linearGradient>
		<path class="st3" d="M37.3,12.9c-0.7,0.6-1.8,0.6-2.4-0.2c-0.6-0.7-0.6-1.8,0.2-2.4c0.7-0.6,1.8-0.6,2.4,0.2S38.1,12.3,37.3,12.9z
			"/>
		
			<linearGradient id="SVGID_3_" gradientUnits="userSpaceOnUse" x1="160.8689" y1="-150.7867" x2="164.1772" y2="-150.7867" gradientTransform="matrix(0.7079 0 0 -0.7079 -80.6204 -99.1421)">
			<stop  offset="0" style="stop-color:#05BFE2"/>
			<stop  offset="4.640000e-02" style="stop-color:#03B9DB"/>
			<stop  offset="0.1598" style="stop-color:#01AFD0"/>
			<stop  offset="0.2809" style="stop-color:#00ACCC"/>
			<stop  offset="1" style="stop-color:#029BB8"/>
		</linearGradient>
		<path class="st4" d="M34.9,8.7c-0.6,0.3-1.3,0-1.5-0.6c-0.3-0.6,0-1.3,0.6-1.5c0.6-0.3,1.3,0,1.5,0.6C35.8,7.7,35.5,8.4,34.9,8.7z
			"/>
		
			<linearGradient id="SVGID_4_" gradientUnits="userSpaceOnUse" x1="166.423" y1="-151.9543" x2="168.2024" y2="-151.9543" gradientTransform="matrix(0.7079 0 0 -0.7079 -80.6204 -99.1421)">
			<stop  offset="0" style="stop-color:#05BFE2"/>
			<stop  offset="4.640000e-02" style="stop-color:#03B9DB"/>
			<stop  offset="0.1598" style="stop-color:#01AFD0"/>
			<stop  offset="0.2809" style="stop-color:#00ACCC"/>
			<stop  offset="1" style="stop-color:#029BB8"/>
		</linearGradient>
		<path class="st5" d="M38.2,8.9c-0.3,0.2-0.7,0.2-0.9,0c-0.2-0.3-0.2-0.7,0-0.9c0.3-0.2,0.7-0.2,0.9,0C38.5,8.3,38.5,8.7,38.2,8.9z
			"/>
		
			<linearGradient id="SVGID_5_" gradientUnits="userSpaceOnUse" x1="122.5642" y1="-150.5139" x2="126.1144" y2="-150.5139" gradientTransform="matrix(0.7079 0 0 -0.7079 -80.6204 -99.1421)">
			<stop  offset="0" style="stop-color:#05BFE2"/>
			<stop  offset="4.640000e-02" style="stop-color:#03B9DB"/>
			<stop  offset="0.1598" style="stop-color:#01AFD0"/>
			<stop  offset="0.2809" style="stop-color:#00ACCC"/>
			<stop  offset="1" style="stop-color:#029BB8"/>
		</linearGradient>
		<path class="st6" d="M8.3,8.3C7.9,8.8,7.1,8.8,6.5,8.3C6,7.9,6,7.1,6.5,6.6S7.7,6,8.2,6.5S8.8,7.7,8.3,8.3z"/>
		
			<linearGradient id="SVGID_6_" gradientUnits="userSpaceOnUse" x1="121.8188" y1="-146.4317" x2="123.4559" y2="-146.4317" gradientTransform="matrix(0.7079 0 0 -0.7079 -80.6204 -99.1421)">
			<stop  offset="0" style="stop-color:#05BFE2"/>
			<stop  offset="4.640000e-02" style="stop-color:#03B9DB"/>
			<stop  offset="0.1598" style="stop-color:#01AFD0"/>
			<stop  offset="0.2809" style="stop-color:#00ACCC"/>
			<stop  offset="1" style="stop-color:#029BB8"/>
		</linearGradient>
		<path class="st7" d="M6.5,5c-0.3,0.2-0.6,0-0.8-0.2C5.5,4.5,5.6,4.2,5.9,4s0.6,0,0.8,0.2C6.9,4.5,6.7,4.9,6.5,5z"/>
		
			<linearGradient id="SVGID_7_" gradientUnits="userSpaceOnUse" x1="118.7631" y1="-150.6165" x2="120.5395" y2="-150.6165" gradientTransform="matrix(0.7079 0 0 -0.7079 -80.6204 -99.1421)">
			<stop  offset="0" style="stop-color:#05BFE2"/>
			<stop  offset="4.640000e-02" style="stop-color:#03B9DB"/>
			<stop  offset="0.1598" style="stop-color:#01AFD0"/>
			<stop  offset="0.2809" style="stop-color:#00ACCC"/>
			<stop  offset="1" style="stop-color:#029BB8"/>
		</linearGradient>
		<path class="st8" d="M4.5,8C4.2,8.2,3.8,8.2,3.6,7.9C3.4,7.6,3.4,7.2,3.7,7s0.7-0.2,0.9,0.1C4.8,7.3,4.8,7.7,4.5,8z"/>
		
			<linearGradient id="SVGID_8_" gradientUnits="userSpaceOnUse" x1="161.3833" y1="-146.2596" x2="162.8763" y2="-146.2596" gradientTransform="matrix(0.7079 0 0 -0.7079 -80.6204 -99.1421)">
			<stop  offset="0" style="stop-color:#05BFE2"/>
			<stop  offset="4.640000e-02" style="stop-color:#03B9DB"/>
			<stop  offset="0.1598" style="stop-color:#01AFD0"/>
			<stop  offset="0.2809" style="stop-color:#00ACCC"/>
			<stop  offset="1" style="stop-color:#029BB8"/>
		</linearGradient>
		<path class="st9" d="M34.5,4.8c-0.2,0.2-0.6,0.2-0.7,0c-0.2-0.2-0.2-0.6,0-0.7c0.2-0.2,0.6-0.2,0.7,0C34.7,4.3,34.7,4.6,34.5,4.8z
			"/>
		
			<linearGradient id="SVGID_9_" gradientUnits="userSpaceOnUse" x1="156.7692" y1="-148.4827" x2="159.1635" y2="-148.4827" gradientTransform="matrix(0.7079 0 0 -0.7079 -80.6204 -99.1421)">
			<stop  offset="0" style="stop-color:#05BFE2"/>
			<stop  offset="4.640000e-02" style="stop-color:#03B9DB"/>
			<stop  offset="0.1598" style="stop-color:#01AFD0"/>
			<stop  offset="0.2809" style="stop-color:#00ACCC"/>
			<stop  offset="1" style="stop-color:#029BB8"/>
		</linearGradient>
		<path class="st10" d="M31.8,6.6c-0.4,0.3-0.9,0.3-1.2-0.1c-0.3-0.4-0.3-0.9,0.1-1.2C31,5,31.5,5.1,31.8,5.4
			C32.1,5.8,32.1,6.3,31.8,6.6z"/>
	</g>
	<path class="st11" d="M6.6,12.4c0,0-0.1-0.1-0.2,0c-0.2,0.1-0.4,0.2-0.7,0.2c-0.3,0-0.7-0.1-0.9-0.4c-0.2-0.2-0.3-0.5-0.3-0.7
		c0-0.1-0.1-0.1-0.1-0.1h0c-0.1,0-0.1,0.1-0.1,0.1c0,0.3,0.1,0.7,0.4,0.9c0.3,0.3,0.7,0.5,1.1,0.5c0.3,0,0.6-0.1,0.8-0.3
		C6.7,12.6,6.7,12.5,6.6,12.4L6.6,12.4z M37,12.5c0,0-0.1-0.1-0.2,0c-0.2,0.1-0.4,0.2-0.6,0.2c-0.3,0-0.6-0.1-0.8-0.4
		c-0.2-0.2-0.3-0.5-0.3-0.7c0-0.1-0.1-0.1-0.1-0.1l0,0c-0.1,0-0.1,0.1-0.1,0.1c0,0.3,0.1,0.6,0.3,0.9c0.3,0.3,0.6,0.5,1,0.5
		c0.3,0,0.6-0.1,0.8-0.3C37.1,12.7,37.1,12.6,37,12.5L37,12.5z M34.8,8.4C34.7,8.3,34.7,8.3,34.8,8.4c-0.3,0-0.4,0-0.6,0
		c-0.2-0.1-0.4-0.2-0.5-0.4c-0.1-0.2-0.1-0.3,0-0.5c0,0,0-0.1-0.1-0.1l0,0c0,0-0.1,0-0.1,0.1c-0.1,0.2,0,0.4,0,0.6
		c0.1,0.2,0.3,0.4,0.6,0.5c0.2,0.1,0.4,0.1,0.6,0C34.8,8.5,34.8,8.4,34.8,8.4L34.8,8.4z M38.1,8.8C38.1,8.7,38.1,8.7,38.1,8.8
		c-0.1,0-0.2,0.1-0.3,0.1c-0.1,0-0.2,0-0.3-0.1c-0.1-0.1-0.1-0.2-0.1-0.3c0,0,0,0,0,0l0,0c0,0,0,0,0,0c0,0.1,0.1,0.2,0.1,0.3
		c0.1,0.1,0.2,0.2,0.4,0.2C37.9,8.9,38,8.9,38.1,8.8C38.1,8.8,38.1,8.8,38.1,8.8L38.1,8.8z M8.1,8C8,8,8,8,7.9,8
		C7.8,8.1,7.7,8.2,7.5,8.2C7.3,8.2,7,8.2,6.9,8C6.7,7.9,6.6,7.7,6.6,7.5c0,0,0-0.1-0.1-0.1l0,0c-0.1,0-0.1,0.1-0.1,0.1
		c0,0.2,0.1,0.4,0.3,0.6c0.2,0.2,0.5,0.3,0.8,0.3c0.2,0,0.4-0.1,0.5-0.2C8.1,8.1,8.1,8,8.1,8L8.1,8z M6.4,4.9
		C6.4,4.9,6.4,4.9,6.4,4.9c-0.1,0-0.2,0-0.3,0C6,4.9,5.9,4.8,5.9,4.7c0-0.1-0.1-0.2,0-0.3c0,0,0,0,0,0l0,0c0,0,0,0,0,0
		c0,0.1,0,0.2,0,0.3C5.9,4.8,6,4.9,6.1,5C6.2,5,6.3,5,6.4,4.9C6.4,4.9,6.4,4.9,6.4,4.9L6.4,4.9z M4.4,7.8C4.4,7.8,4.3,7.8,4.4,7.8
		c-0.1,0-0.2,0.1-0.3,0.1c-0.1,0-0.2,0-0.3-0.1C3.7,7.7,3.7,7.6,3.7,7.5c0,0,0,0,0,0l0,0c0,0,0,0,0,0c0,0.1,0,0.2,0.1,0.3
		C3.8,7.9,3.9,8,4.1,8C4.2,8,4.3,7.9,4.4,7.8C4.4,7.9,4.4,7.8,4.4,7.8L4.4,7.8z M34.4,4.7C34.4,4.7,34.4,4.7,34.4,4.7
		c-0.1,0-0.2,0.1-0.2,0.1c-0.1,0-0.2,0-0.3-0.1c-0.1-0.1-0.1-0.1-0.1-0.2c0,0,0,0,0,0l0,0c0,0,0,0,0,0c0,0.1,0,0.2,0.1,0.3
		c0.1,0.1,0.2,0.1,0.3,0.1C34.2,4.8,34.3,4.8,34.4,4.7C34.4,4.7,34.4,4.7,34.4,4.7L34.4,4.7z M31.6,6.4C31.6,6.4,31.5,6.4,31.6,6.4
		c-0.2,0.1-0.3,0.1-0.4,0.1c-0.2,0-0.3-0.1-0.4-0.2c-0.1-0.1-0.1-0.2-0.1-0.3c0,0,0-0.1-0.1-0.1l0,0c0,0-0.1,0-0.1,0.1
		c0,0.2,0.1,0.3,0.2,0.4c0.1,0.1,0.3,0.2,0.5,0.2C31.3,6.6,31.5,6.6,31.6,6.4C31.6,6.5,31.6,6.4,31.6,6.4L31.6,6.4z M10.9,5.7
		c0.2,0,0.4-0.1,0.5-0.1c0.4,0,0.8,0.2,1,0.4c0.2,0.3,0.4,0.6,0.4,1.1c0,0.4-0.1,0.7-0.4,1c-0.3,0.3-0.8,0.5-1.5,0.5
		c-0.3,0-0.5,0-0.7-0.1C10,8.6,9.9,8.4,9.9,8.1V4.8c0-0.3,0.2-0.5,0.5-0.5c0.3,0,0.5,0.2,0.5,0.5C10.9,4.8,10.9,5.7,10.9,5.7z
		 M10.9,7.9c0,0,0.2,0,0.2,0c0.2,0,0.4-0.1,0.5-0.2c0.1-0.1,0.1-0.2,0.1-0.4c0-0.2-0.1-0.4-0.2-0.5c-0.1-0.1-0.3-0.2-0.4-0.2
		c-0.1,0-0.2,0-0.3,0V7.9z M13.5,6.2c0-0.3,0.2-0.5,0.5-0.5c0.3,0,0.5,0.2,0.5,0.5v1.2c0,0.1,0,0.2,0.1,0.3c0.1,0.1,0.2,0.2,0.4,0.2
		s0.3-0.1,0.4-0.2c0-0.1,0.1-0.2,0.1-0.3V6.2c0-0.3,0.2-0.5,0.5-0.5s0.5,0.2,0.5,0.5v1.2c0,0.4-0.1,0.7-0.3,0.9
		C16,8.6,15.5,8.8,15,8.8s-1-0.1-1.2-0.5c-0.2-0.2-0.3-0.5-0.3-0.9V6.2z M18.3,5.7c0.2,0,0.4-0.1,0.5-0.1c0.4,0,0.8,0.2,1,0.4
		c0.2,0.3,0.4,0.6,0.4,1.1c0,0.4-0.1,0.7-0.4,1c-0.3,0.3-0.8,0.5-1.5,0.5c-0.3,0-0.5,0-0.7-0.1c-0.3-0.1-0.5-0.3-0.5-0.6V4.8
		c0-0.3,0.2-0.5,0.5-0.5c0.3,0,0.5,0.2,0.5,0.5V5.7z M18.3,7.9c0,0,0.2,0,0.2,0c0.2,0,0.4-0.1,0.5-0.2c0.1-0.1,0.1-0.2,0.1-0.4
		c0-0.2-0.1-0.4-0.2-0.5c-0.1-0.1-0.3-0.2-0.4-0.2c-0.1,0-0.2,0-0.3,0V7.9z M21.9,5.7c0.2,0,0.4-0.1,0.5-0.1c0.4,0,0.8,0.2,1,0.4
		c0.2,0.3,0.4,0.6,0.4,1.1c0,0.4-0.1,0.7-0.4,1c-0.3,0.3-0.8,0.5-1.5,0.5c-0.3,0-0.5,0-0.7-0.1c-0.3-0.1-0.5-0.3-0.5-0.6V4.8
		c0-0.3,0.2-0.5,0.5-0.5c0.3,0,0.5,0.2,0.5,0.5L21.9,5.7L21.9,5.7z M21.9,7.9c0,0,0.2,0,0.2,0c0.2,0,0.4-0.1,0.5-0.2
		c0.1-0.1,0.1-0.2,0.1-0.4c0-0.2-0.1-0.4-0.2-0.5c-0.1-0.1-0.3-0.2-0.4-0.2c-0.1,0-0.2,0-0.3,0V7.9z M24.4,4.8
		c0-0.3,0.2-0.5,0.5-0.5c0.3,0,0.5,0.2,0.5,0.5v3.5c0,0.3-0.2,0.5-0.5,0.5s-0.5-0.2-0.5-0.5V4.8z M28.9,8.2c0,0.2-0.1,0.4-0.4,0.5
		c-0.3,0.1-0.6,0.1-0.8,0.1c-0.5,0-0.9-0.1-1.2-0.4c-0.3-0.3-0.5-0.7-0.5-1.2c0-0.5,0.2-0.8,0.4-1.1c0.3-0.2,0.6-0.4,1.1-0.4
		c0.5,0,0.8,0.2,1.1,0.4C28.9,6.4,29,6.7,29,7c0,0.3-0.2,0.5-0.5,0.5h-1.4c0,0.1,0.1,0.2,0.2,0.3C27.4,7.9,27.6,8,27.8,8
		c0.2,0,0.3,0,0.4-0.1c0.2-0.1,0.2-0.1,0.4-0.1C28.7,7.8,28.9,8,28.9,8.2z M28,6.9c0-0.1,0-0.2-0.1-0.3c-0.1-0.1-0.2-0.1-0.3-0.1
		c-0.1,0-0.3,0-0.3,0.1c-0.1,0.1-0.1,0.2-0.1,0.3L28,6.9L28,6.9z M11.7,12.6c-0.1-0.1-0.2-0.1-0.3-0.1c0.1-0.2,0.1-0.4,0.1-0.5
		c0-0.2-0.2-0.4-0.4-0.4c-0.1,0-0.2,0.1-0.3,0.2c-0.1,0.1-0.1,0.2-0.1,0.2c-0.1-0.1-0.2-0.2-0.3-0.4c0.4-0.2,0.6-0.5,0.6-0.8
		c0-0.4-0.3-0.7-0.8-0.7c-0.6,0-0.9,0.3-0.9,0.7c0,0.2,0.1,0.5,0.1,0.6C9.2,11.7,9,11.9,9,12.3c0,0.5,0.4,0.9,1.1,0.9
		c0.3,0,0.6-0.1,0.9-0.2c0.1,0.1,0.4,0.2,0.5,0.2c0.2,0,0.4-0.2,0.4-0.4C11.9,12.7,11.8,12.6,11.7,12.6z M10.2,12.7
		c-0.3,0-0.4-0.2-0.4-0.4c0-0.1,0.1-0.2,0.2-0.3c0.2,0.2,0.3,0.4,0.5,0.6C10.3,12.7,10.3,12.7,10.2,12.7z M10.2,11.2
		c0-0.1-0.1-0.2-0.1-0.3c0,0,0-0.2,0.2-0.2c0.1,0,0.1,0.1,0.1,0.1C10.5,10.9,10.4,11.1,10.2,11.2z M15,11.5
		c-0.2-0.1-0.4-0.2-0.6-0.2c-0.1-0.1-0.2-0.1-0.2-0.2c0-0.1,0.1-0.1,0.2-0.1c0.1,0,0.2,0,0.3,0.1c0.1,0,0.2,0.1,0.3,0.1
		c0.2,0,0.4-0.2,0.4-0.4c0-0.2-0.1-0.4-0.4-0.4c-0.2-0.1-0.4-0.1-0.7-0.1c-0.8,0-1.2,0.4-1.2,0.9c0,0.4,0.2,0.7,0.5,0.8
		c0.2,0.1,0.4,0.1,0.6,0.2c0.1,0.1,0.2,0.1,0.2,0.2c0,0.1-0.1,0.2-0.2,0.2c-0.1,0-0.2,0-0.3-0.1c-0.1-0.1-0.2-0.1-0.4-0.1
		c-0.2,0-0.4,0.2-0.4,0.4c0,0.2,0.2,0.4,0.4,0.5c0.2,0.1,0.5,0.1,0.8,0.1c0.8,0,1.3-0.4,1.3-1C15.4,12,15.3,11.7,15,11.5z M19,13.2
		v-2.3c0-0.4-0.2-0.6-0.5-0.7c-0.2,0-0.4-0.1-0.7-0.1c-0.5,0-1,0.2-1.4,0.5c-0.2,0.2-0.4,0.6-0.4,1.1c0,0.5,0.2,0.9,0.4,1.1
		c0.3,0.3,0.6,0.4,0.9,0.4c0.2,0,0.3,0,0.4-0.1c0.1,0,0.1-0.1,0.1-0.1v0l0,0l0,2.5c0,0.3,0.2,0.5,0.5,0.5c0.3,0,0.5-0.2,0.5-0.5
		L19,13.2L19,13.2z M18,11.8c0,0.2,0,0.4-0.1,0.4c-0.1,0.1-0.2,0.1-0.3,0.1c-0.2,0-0.3-0.1-0.4-0.2c-0.1-0.1-0.1-0.3-0.1-0.5
		c0-0.2,0-0.3,0.1-0.5c0.1-0.2,0.3-0.2,0.5-0.2c0.1,0,0.2,0,0.3,0L18,11.8L18,11.8z M22.2,10.2c-0.3,0-0.5,0.2-0.5,0.5v1.2
		c0,0.1,0,0.2-0.1,0.3c-0.1,0.1-0.2,0.2-0.4,0.2c-0.2,0-0.3-0.1-0.4-0.2c0-0.1-0.1-0.2-0.1-0.3v-1.2c0-0.3-0.2-0.5-0.5-0.5
		s-0.5,0.2-0.5,0.5v1.2c0,0.4,0.1,0.7,0.3,0.9c0.3,0.3,0.7,0.5,1.2,0.5s1-0.1,1.2-0.5c0.2-0.2,0.3-0.5,0.3-0.9v-1.2
		C22.7,10.4,22.5,10.2,22.2,10.2z M26.3,11.5c0-0.3-0.1-0.6-0.4-0.9c-0.2-0.2-0.6-0.4-1.1-0.4c-0.5,0-0.8,0.1-1.1,0.4
		c-0.3,0.3-0.4,0.6-0.4,1.1c0,0.5,0.2,0.9,0.5,1.2c0.3,0.3,0.7,0.4,1.2,0.4c0.2,0,0.5,0,0.8-0.1c0.3-0.1,0.4-0.2,0.4-0.5
		c0-0.2-0.2-0.4-0.4-0.4c-0.1,0-0.2,0.1-0.4,0.1c-0.1,0-0.2,0.1-0.4,0.1c-0.2,0-0.3-0.1-0.4-0.1c-0.1-0.1-0.1-0.2-0.2-0.3h1.4
		C26.1,12,26.3,11.8,26.3,11.5z M24.4,11.4c0-0.1,0.1-0.2,0.1-0.3c0.1-0.1,0.2-0.1,0.3-0.1c0.1,0,0.2,0,0.3,0.1
		c0.1,0.1,0.1,0.2,0.1,0.3L24.4,11.4L24.4,11.4z M28.2,10.2c-0.3,0-0.6,0.1-0.8,0.2c-0.2,0.1-0.4,0.2-0.4,0.4c0,0.2,0.2,0.4,0.4,0.4
		c0.1,0,0.2,0,0.3-0.1c0.1-0.1,0.3-0.1,0.5-0.1c0.1,0,0.2,0,0.3,0.1c0,0.1,0.1,0.1,0.1,0.2v0c-0.3,0-0.8,0.1-1.1,0.2
		c-0.3,0.1-0.5,0.4-0.5,0.7c0,0.6,0.4,0.9,0.9,0.9c0.3,0,0.5,0,0.7-0.2c0.1,0.1,0.2,0.2,0.4,0.2c0.3,0,0.5-0.2,0.5-0.5v-1.5
		c0-0.4-0.1-0.6-0.3-0.8C28.9,10.2,28.5,10.2,28.2,10.2z M28.4,12.4c-0.1,0.1-0.2,0.1-0.3,0.1c-0.2,0-0.3-0.1-0.3-0.2
		c0-0.1,0.1-0.2,0.2-0.2c0.1,0,0.3,0,0.4-0.1L28.4,12.4L28.4,12.4z M32.9,12.5l-0.7-1l0.6-0.5c0.1-0.1,0.1-0.2,0.1-0.3
		c0-0.2-0.2-0.5-0.5-0.5c-0.1,0-0.2,0-0.3,0.1l-0.9,0.9V9.3c0-0.3-0.2-0.5-0.5-0.5S30.2,9,30.2,9.3v3.5c0,0.3,0.2,0.5,0.5,0.5
		c0.3,0,0.5-0.2,0.5-0.5v-0.4l0.3-0.3l0.6,0.9c0.1,0.1,0.2,0.2,0.4,0.2c0.3,0,0.5-0.2,0.5-0.5C33,12.7,33,12.6,32.9,12.5z"/>
	<path class="st12" d="M4.6,14.7c0.1,0,0.2,0,0.3,0.1C5,14.9,5.1,15,5.1,15.2c0,0.2-0.1,0.3-0.2,0.4c-0.1,0.1-0.2,0.1-0.3,0.1H4.3
		v0.2c0,0.1-0.1,0.2-0.2,0.2C4.1,16.1,4,16,4,15.9v-1.1c0-0.1,0.1-0.2,0.2-0.2C4.2,14.7,4.6,14.7,4.6,14.7z M4.7,15c0,0-0.1,0-0.1,0
		H4.3v0.4h0.2c0,0,0.1,0,0.1,0c0,0,0.1-0.1,0.1-0.2C4.8,15.1,4.7,15,4.7,15z M6.1,15.9c0,0.1-0.1,0.2-0.2,0.2
		c-0.1,0-0.2-0.1-0.2-0.2v-1.1c0-0.1,0.1-0.2,0.2-0.2h0.5c0.1,0,0.3,0,0.4,0.1c0.1,0.1,0.2,0.2,0.2,0.4c0,0.1,0,0.2-0.2,0.3
		c0,0,0,0-0.1,0l0.2,0.3c0,0,0,0.1,0,0.1c0,0.1-0.1,0.2-0.2,0.2c-0.1,0-0.1,0-0.2-0.1l-0.2-0.4H6.1L6.1,15.9L6.1,15.9z M6.1,15v0.3
		h0.3c0,0,0.1,0,0.1,0c0,0,0.1-0.1,0.1-0.1c0-0.1,0-0.1-0.1-0.1c0,0-0.1,0-0.1,0L6.1,15L6.1,15z M7.8,15.7h0.6
		c0.1,0,0.2,0.1,0.2,0.2c0,0.1-0.1,0.2-0.2,0.2H7.7c-0.1,0-0.2-0.1-0.2-0.2v-1c0-0.1,0.1-0.2,0.2-0.2h0.8c0.1,0,0.2,0.1,0.2,0.2
		c0,0.1-0.1,0.2-0.2,0.2H7.8v0.2h0.5c0.1,0,0.2,0.1,0.2,0.2c0,0.1-0.1,0.2-0.2,0.2H7.8V15.7z M10,15c-0.1,0-0.1,0-0.2-0.1
		c0,0-0.1,0-0.2,0c-0.1,0-0.1,0-0.1,0.1c0,0.1,0.1,0.1,0.2,0.1c0.1,0,0.3,0.1,0.4,0.1c0.1,0.1,0.1,0.2,0.1,0.3
		c0,0.3-0.2,0.5-0.6,0.5c-0.1,0-0.2,0-0.4-0.1c-0.1,0-0.2-0.1-0.2-0.2c0-0.1,0.1-0.2,0.2-0.2c0,0,0.1,0,0.1,0c0.1,0,0.1,0.1,0.2,0.1
		c0.2,0,0.2-0.1,0.2-0.1c0-0.1-0.1-0.1-0.2-0.1c-0.1,0-0.2-0.1-0.4-0.1c-0.1-0.1-0.2-0.2-0.2-0.3c0-0.2,0.2-0.4,0.5-0.4
		c0.1,0,0.2,0,0.3,0.1c0.1,0,0.1,0.1,0.1,0.2C10.1,15,10.1,15,10,15z M11.4,15v0.9c0,0.1-0.1,0.2-0.2,0.2c-0.1,0-0.2-0.1-0.2-0.2V15
		h-0.3c-0.1,0-0.2-0.1-0.2-0.2c0-0.1,0.1-0.2,0.2-0.2h1c0.1,0,0.2,0.1,0.2,0.2c0,0.1-0.1,0.2-0.2,0.2H11.4z M12.4,14.8
		c0-0.1,0.1-0.2,0.2-0.2c0.1,0,0.2,0.1,0.2,0.2v1.1c0,0.1-0.1,0.2-0.2,0.2c-0.1,0-0.2-0.1-0.2-0.2V14.8z M14.5,15.3
		c0.1,0,0.2,0.1,0.2,0.2v0.5c0,0.1-0.1,0.2-0.2,0.2c-0.1,0-0.1,0-0.1-0.1c-0.1,0-0.2,0.1-0.3,0.1c-0.4,0-0.7-0.3-0.7-0.7
		c0-0.4,0.3-0.7,0.8-0.7c0.1,0,0.2,0,0.3,0c0.1,0,0.1,0.1,0.1,0.2c0,0.1-0.1,0.2-0.2,0.2c0,0-0.1,0-0.1,0c0,0-0.1,0-0.1,0
		c-0.2,0-0.4,0.2-0.4,0.4c0,0.2,0.1,0.4,0.4,0.4c0.1,0,0.2,0,0.2,0v-0.1h-0.1c-0.1,0-0.2-0.1-0.2-0.2c0-0.1,0.1-0.2,0.2-0.2
		L14.5,15.3L14.5,15.3z M15.7,15.7h0.6c0.1,0,0.2,0.1,0.2,0.2c0,0.1-0.1,0.2-0.2,0.2h-0.8c-0.1,0-0.2-0.1-0.2-0.2v-1
		c0-0.1,0.1-0.2,0.2-0.2h0.8c0.1,0,0.2,0.1,0.2,0.2c0,0.1-0.1,0.2-0.2,0.2h-0.6v0.2h0.5c0.1,0,0.2,0.1,0.2,0.2
		c0,0.1-0.1,0.2-0.2,0.2h-0.5V15.7z M20.5,14.8c0-0.1,0.1-0.2,0.2-0.2c0.1,0,0.2,0.1,0.2,0.2v0.9h0.4c0.1,0,0.2,0.1,0.2,0.2
		c0,0.1-0.1,0.2-0.2,0.2h-0.6c-0.1,0-0.2-0.1-0.2-0.2L20.5,14.8L20.5,14.8z M22.7,15.8h-0.4l0,0.2c0,0.1-0.1,0.1-0.2,0.1
		c-0.1,0-0.2-0.1-0.2-0.2c0,0,0-0.1,0-0.1l0.3-1c0-0.1,0.1-0.2,0.3-0.2s0.2,0.1,0.3,0.2l0.3,1c0,0,0,0.1,0,0.1
		c0,0.1-0.1,0.2-0.2,0.2c-0.1,0-0.1,0-0.2-0.1L22.7,15.8z M22.4,15.5h0.3l-0.1-0.4L22.4,15.5z M24.5,15.7c0,0,0.1-0.1,0.1-0.2v-0.7
		c0-0.1,0.1-0.2,0.2-0.2c0.1,0,0.2,0.1,0.2,0.2v0.7c0,0.2,0,0.3-0.1,0.4c-0.1,0.1-0.3,0.2-0.5,0.2c-0.2,0-0.4-0.1-0.5-0.2
		c-0.1-0.1-0.1-0.2-0.1-0.4v-0.7c0-0.1,0.1-0.2,0.2-0.2c0.1,0,0.2,0.1,0.2,0.2v0.7c0,0.1,0,0.2,0.1,0.2c0,0.1,0.1,0.1,0.2,0.1
		C24.4,15.8,24.4,15.7,24.5,15.7z M26.8,15.9c0,0.1-0.1,0.2-0.2,0.2c-0.1,0-0.1,0-0.2-0.1l-0.5-0.7v0.7c0,0.1-0.1,0.2-0.2,0.2
		c-0.1,0-0.2-0.1-0.2-0.2v-1.1c0-0.1,0.1-0.2,0.2-0.2c0.1,0,0.1,0,0.2,0.1l0.5,0.7v-0.6c0-0.1,0.1-0.2,0.2-0.2
		c0.1,0,0.2,0.1,0.2,0.2V15.9z M28.6,15.9c-0.2,0.2-0.4,0.2-0.6,0.2h-0.4c-0.1,0-0.2-0.1-0.2-0.2v-1c0-0.1,0.1-0.2,0.2-0.2H28
		c0.2,0,0.4,0,0.6,0.2c0.1,0.1,0.2,0.3,0.2,0.5C28.8,15.6,28.7,15.7,28.6,15.9z M27.8,15.8H28c0.2,0,0.3,0,0.4-0.1
		c0-0.1,0.1-0.1,0.1-0.3c0-0.1,0-0.2-0.1-0.3C28.2,15,28.1,15,28,15h-0.2V15.8z M29.7,15.9c0,0.1-0.1,0.2-0.2,0.2
		c-0.1,0-0.2-0.1-0.2-0.2v-1.1c0-0.1,0.1-0.2,0.2-0.2H30c0.1,0,0.3,0,0.4,0.1c0.1,0.1,0.2,0.2,0.2,0.4c0,0.1,0,0.2-0.2,0.3
		c0,0,0,0-0.1,0l0.2,0.3c0,0,0,0.1,0,0.1c0,0.1-0.1,0.2-0.2,0.2c-0.1,0-0.1,0-0.2-0.1L30,15.6h-0.2L29.7,15.9L29.7,15.9z M29.7,15
		v0.3H30c0,0,0.1,0,0.1,0c0,0,0.1-0.1,0.1-0.1c0-0.1,0-0.1-0.1-0.1c0,0-0.1,0-0.1,0L29.7,15L29.7,15z M31.8,16.1
		c-0.4,0-0.8-0.3-0.8-0.7c0-0.4,0.4-0.7,0.8-0.7c0.4,0,0.8,0.3,0.8,0.7C32.6,15.8,32.2,16.1,31.8,16.1z M31.8,15
		c-0.2,0-0.4,0.2-0.4,0.4c0,0.2,0.2,0.4,0.4,0.4s0.4-0.2,0.4-0.4C32.2,15.1,32.1,15,31.8,15z M33.4,14.6c0.1,0,0.2,0,0.2,0.1
		l0.3,0.6l0.3-0.6c0-0.1,0.1-0.1,0.2-0.1c0.1,0,0.2,0.1,0.2,0.2v1c0,0.1-0.1,0.2-0.2,0.2s-0.2-0.1-0.2-0.2v-0.6l-0.2,0.4
		c0,0.1-0.1,0.1-0.2,0.1c-0.1,0-0.1-0.1-0.2-0.1l-0.2-0.4v0.6c0,0.1-0.1,0.2-0.2,0.2c-0.1,0-0.2-0.1-0.2-0.2v-1
		C33.2,14.7,33.3,14.6,33.4,14.6z M36,15.8h-0.4l0,0.2c0,0.1-0.1,0.1-0.2,0.1c-0.1,0-0.2-0.1-0.2-0.2c0,0,0-0.1,0-0.1l0.3-1
		c0-0.1,0.1-0.2,0.3-0.2s0.2,0.1,0.3,0.2l0.3,1c0,0,0,0.1,0,0.1c0,0.1-0.1,0.2-0.2,0.2c-0.1,0-0.1,0-0.2-0.1L36,15.8z M35.7,15.5
		h0.3l-0.1-0.4L35.7,15.5z M37.5,15v0.9c0,0.1-0.1,0.2-0.2,0.2c-0.1,0-0.2-0.1-0.2-0.2V15h-0.3c-0.1,0-0.2-0.1-0.2-0.2
		c0-0.1,0.1-0.2,0.2-0.2h1c0.1,0,0.2,0.1,0.2,0.2c0,0.1-0.1,0.2-0.2,0.2H37.5z"/>
	<path class="st13" d="M6.8,10.4C6.8,10.4,6.8,10.4,6.8,10.4c-0.1-0.1-0.2-0.2-0.3-0.2c0,0,0,0,0,0c0,0,0,0-0.1,0
		c-0.1,0-0.1,0-0.1,0.1c0,0,0,0,0,0.1c0,0,0,0,0,0.1c0,0,0,0,0,0c0.1,0,0.1,0.1,0.2,0.2c0,0,0,0,0.1,0c0,0,0.1,0,0.1,0
		C6.8,10.6,6.8,10.5,6.8,10.4C6.8,10.5,6.8,10.5,6.8,10.4z M6.2,10.1C6.2,10.1,6.2,10.1,6.2,10.1C6.2,10.1,6.1,10.1,6.2,10.1
		c-0.1,0-0.2,0-0.2,0c-0.1,0-0.1,0.1-0.1,0.1c0,0.1,0,0.1,0.1,0.1c0,0,0,0,0,0c0.1,0,0.1,0,0.2,0c0,0,0,0,0,0c0.1,0,0.1,0,0.2-0.1
		C6.3,10.2,6.2,10.1,6.2,10.1z M37.2,10.7C37.2,10.7,37.2,10.6,37.2,10.7c-0.1-0.1-0.2-0.2-0.2-0.2c0,0,0,0,0,0c0,0,0,0-0.1,0
		c0,0-0.1,0-0.1,0.1c0,0,0,0,0,0c0,0,0,0,0,0.1c0,0,0,0,0,0c0.1,0,0.1,0.1,0.2,0.1c0,0,0,0,0,0c0,0,0.1,0,0.1,0
		C37.2,10.8,37.2,10.7,37.2,10.7C37.2,10.7,37.2,10.7,37.2,10.7z M36.6,10.3C36.6,10.3,36.6,10.3,36.6,10.3
		C36.6,10.3,36.5,10.3,36.6,10.3c-0.1,0-0.2,0-0.2,0c-0.1,0-0.1,0.1-0.1,0.1c0,0.1,0,0.1,0.1,0.1c0,0,0,0,0,0c0.1,0,0.1,0,0.2,0
		c0,0,0,0,0,0c0.1,0,0.1,0,0.1-0.1C36.7,10.4,36.6,10.3,36.6,10.3z M35.2,7.2C35.2,7.2,35.2,7.2,35.2,7.2c0-0.1-0.1-0.1-0.1-0.2
		c0,0,0,0,0,0c0,0,0,0,0,0c0,0-0.1,0-0.1,0c0,0,0,0,0,0c0,0,0,0,0,0c0,0,0,0,0,0c0,0,0.1,0.1,0.1,0.1c0,0,0,0,0,0
		C35.1,7.3,35.2,7.3,35.2,7.2C35.2,7.3,35.2,7.2,35.2,7.2C35.2,7.2,35.2,7.2,35.2,7.2z M34.9,6.8C34.9,6.8,34.9,6.8,34.9,6.8
		C34.9,6.8,34.9,6.8,34.9,6.8c-0.1,0-0.1-0.1-0.1-0.1c0,0-0.1,0-0.1,0.1c0,0,0,0.1,0,0.1c0,0,0,0,0,0c0,0,0.1,0,0.1,0c0,0,0,0,0,0
		c0,0,0.1,0,0.1,0C35,6.9,35,6.9,34.9,6.8z M38.2,8.1C38.2,8.1,38.2,8.1,38.2,8.1C38.1,8,38.1,8,38.2,8.1C38.1,8,38.1,8,38.1,8
		c0,0,0,0,0,0c0,0,0,0,0,0c0,0,0,0,0,0c0,0,0,0,0,0c0,0,0,0,0,0C38,8.1,38.1,8.1,38.2,8.1C38.1,8.1,38.1,8.1,38.2,8.1
		C38.1,8.1,38.1,8.1,38.2,8.1C38.2,8.1,38.2,8.1,38.2,8.1C38.2,8.1,38.2,8.1,38.2,8.1z M37.9,7.9C37.9,7.9,37.9,7.9,37.9,7.9
		C37.9,7.9,37.9,7.9,37.9,7.9C37.9,7.9,37.9,7.9,37.9,7.9c-0.1,0-0.1,0-0.1,0C37.8,8,37.8,8,37.9,7.9C37.8,8,37.8,8,37.9,7.9
		C37.9,8,37.9,8,37.9,7.9C37.9,8,37.9,8,37.9,7.9C37.9,8,38,8,37.9,7.9C38,8,38,8,37.9,7.9z M8,6.6C8,6.6,8,6.6,8,6.6
		C7.9,6.6,7.9,6.5,7.8,6.5c0,0,0,0,0,0c0,0,0,0,0,0c0,0-0.1,0-0.1,0.1c0,0,0,0,0,0c0,0,0,0,0,0c0,0,0,0,0,0c0.1,0,0.1,0.1,0.2,0.1
		c0,0,0,0,0,0C7.9,6.8,8,6.8,8,6.6C8,6.7,8,6.7,8,6.6C8,6.7,8,6.7,8,6.6z M7.6,6.4C7.5,6.4,7.5,6.4,7.6,6.4C7.5,6.4,7.5,6.4,7.6,6.4
		c-0.1,0-0.1,0-0.2,0c-0.1,0-0.1,0-0.1,0.1c0,0,0,0.1,0.1,0.1c0,0,0,0,0,0c0,0,0.1,0,0.1,0c0,0,0,0,0,0c0,0,0.1,0,0.1-0.1
		C7.6,6.5,7.6,6.4,7.6,6.4z M6.6,4.3C6.6,4.3,6.6,4.3,6.6,4.3C6.6,4.2,6.5,4.2,6.6,4.3C6.5,4.2,6.5,4.2,6.6,4.3
		C6.5,4.2,6.5,4.2,6.5,4.2c0,0,0,0,0,0c0,0,0,0,0,0c0,0,0,0,0,0c0,0,0,0,0,0C6.5,4.3,6.5,4.3,6.6,4.3C6.5,4.3,6.5,4.3,6.6,4.3
		C6.5,4.3,6.5,4.3,6.6,4.3C6.6,4.3,6.6,4.3,6.6,4.3C6.6,4.3,6.6,4.3,6.6,4.3z M6.4,4.1L6.4,4.1C6.4,4.1,6.4,4.1,6.4,4.1
		C6.4,4.1,6.4,4.1,6.4,4.1c-0.1,0-0.1,0-0.1,0c0,0,0,0,0,0C6.3,4.2,6.3,4.2,6.4,4.1C6.3,4.2,6.3,4.2,6.4,4.1
		C6.4,4.2,6.4,4.2,6.4,4.1C6.4,4.2,6.4,4.2,6.4,4.1C6.4,4.2,6.4,4.1,6.4,4.1z M4.4,7.1C4.4,7.1,4.4,7.1,4.4,7.1
		C4.4,7.1,4.4,7.1,4.4,7.1C4.3,7.1,4.3,7.1,4.4,7.1C4.3,7,4.3,7,4.3,7c0,0,0,0,0,0c0,0,0,0,0,0c0,0,0,0,0,0c0,0,0,0,0,0
		C4.3,7.1,4.3,7.2,4.4,7.1C4.4,7.2,4.4,7.2,4.4,7.1C4.4,7.2,4.4,7.2,4.4,7.1C4.4,7.2,4.4,7.2,4.4,7.1C4.4,7.1,4.4,7.1,4.4,7.1z
		 M4.2,7L4.2,7C4.2,7,4.2,7,4.2,7C4.2,7,4.2,7,4.2,7C4.1,7,4.1,7,4.1,7C4.1,7,4.1,7.1,4.2,7C4.1,7.1,4.1,7.1,4.2,7
		C4.1,7.1,4.2,7.1,4.2,7C4.2,7.1,4.2,7.1,4.2,7C4.2,7.1,4.2,7.1,4.2,7C4.2,7,4.2,7,4.2,7z M34.4,4.1C34.4,4.1,34.4,4.1,34.4,4.1
		C34.4,4.1,34.4,4.1,34.4,4.1C34.4,4,34.4,4,34.4,4.1C34.4,4,34.4,4,34.4,4.1C34.3,4,34.3,4,34.3,4.1c0,0,0,0,0,0c0,0,0,0,0,0
		c0,0,0,0,0,0C34.3,4.1,34.4,4.1,34.4,4.1C34.4,4.2,34.4,4.2,34.4,4.1C34.4,4.2,34.4,4.2,34.4,4.1C34.4,4.1,34.4,4.1,34.4,4.1
		C34.4,4.1,34.4,4.1,34.4,4.1z M34.3,4L34.3,4C34.3,4,34.3,4,34.3,4C34.2,4,34.2,4,34.3,4c-0.1,0-0.1,0-0.1,0C34.2,4,34.2,4,34.3,4
		C34.2,4.1,34.2,4.1,34.3,4C34.2,4.1,34.2,4.1,34.3,4C34.2,4.1,34.2,4.1,34.3,4C34.3,4.1,34.3,4.1,34.3,4C34.3,4,34.3,4,34.3,4z
		 M31.7,5.5C31.7,5.5,31.7,5.5,31.7,5.5c0-0.1-0.1-0.1-0.1-0.1c0,0,0,0,0,0c0,0,0,0,0,0c0,0,0,0-0.1,0c0,0,0,0,0,0c0,0,0,0,0,0
		c0,0,0,0,0,0C31.5,5.5,31.6,5.5,31.7,5.5C31.6,5.6,31.6,5.6,31.7,5.5C31.6,5.6,31.6,5.6,31.7,5.5C31.7,5.6,31.7,5.5,31.7,5.5
		C31.7,5.5,31.7,5.5,31.7,5.5z M31.4,5.3C31.4,5.3,31.4,5.3,31.4,5.3C31.4,5.3,31.4,5.3,31.4,5.3c0,0-0.1,0-0.1,0c0,0-0.1,0-0.1,0.1
		c0,0,0,0,0,0.1c0,0,0,0,0,0c0,0,0.1,0,0.1,0c0,0,0,0,0,0C31.4,5.4,31.4,5.4,31.4,5.3C31.4,5.4,31.4,5.3,31.4,5.3z"/>
</g>
</svg>
