<?xml version="1.0" encoding="utf-8"?>
<!-- Generator: Adobe Illustrator 24.0.1, SVG Export Plug-In . SVG Version: 6.00 Build 0)  -->
<svg version="1.1" id="Layer_1" xmlns="http://www.w3.org/2000/svg" xmlns:xlink="http://www.w3.org/1999/xlink" x="0px" y="0px"
	 viewBox="0 0 1277 1277" style="enable-background:new 0 0 1277 1277;" xml:space="preserve">
<path d="M1087,246C870.2-1.7,493.7-26.7,246,190C-1.7,406.8-26.7,783.3,190,1031s593.3,272.7,841,56
	C1278.7,870.2,1303.8,493.7,1087,246z M685,172.2c21.5,2.1,43,5.9,63.6,11c3.8,0.8,7.2,1.7,11,2.9c0.4,0,0.4,0,0.8,0.4
	c23.6,7.2,36.2,33.3,27,56c-8,19.8-29.5,30.7-49.7,24.8c-3.4-0.8-6.3-1.7-9.7-2.5c-17.3-4.2-35-7.2-52.6-8.8
	c-3.8-0.4-7.2-1.3-10.5-2.5c-15.6-5.9-26.5-21.5-26.5-39.2C638.2,189.5,660.1,169.7,685,172.2z M910.4,1020
	c-79.1,56.4-173.9,87-271.7,87c-135.2,0-263.7-58.3-352.7-159.9c-72.6-83-113-186.6-115.8-295.5c-0.6-24,18.1-44.2,42.2-44.2l0.2,0
	c22.7,0,41.3,17.9,41.8,40.6c2.1,86.7,33.4,173.2,95,243.6c76,86.8,182.3,131.2,289.3,131.2c78.2,0,156.8-23.8,223.9-72.1
	c17.2-12.4,41.2-9,55.2,7C934.3,976.4,930.8,1005.5,910.4,1020z M957.5,359.2c-10.5,9.7-25.7,12.6-38.7,8.8
	c-5.9-1.3-11.8-4.2-16.4-8.8c-20.6-19.8-43.4-36.6-67-51c-5.9-3.4-11-7.6-13.9-13.1c-4.6-6.7-7.2-14.7-7.2-22.7
	c0-5.5,1.3-10.9,3.4-16.4c6.7-16.4,22.7-26.1,39.6-26.1c5.9,0,11.8,1.3,17.3,4.2c3.8,2.1,7.6,4.2,11.8,6.7
	c25.7,16,50.1,34.5,72.4,55.6c5.1,4.6,8.4,10.1,10.5,16c2.1,5.1,2.9,9.7,2.9,14.7C972.2,339,967.2,350.8,957.5,359.2z"/>
</svg>
